<svg width="19" height="16" viewBox="0 0 19 16" fill="none" xmlns="http://www.w3.org/2000/svg">
<path d="M16.8438 2.40625H13.9219L13.2258 0.455469C13.1777 0.321982 13.0896 0.206598 12.9734 0.125077C12.8573 0.0435561 12.7188 -0.000125172 12.577 2.6942e-07H5.98555C5.69551 2.6942e-07 5.43555 0.182617 5.33887 0.455469L4.64062 2.40625H1.71875C0.769141 2.40625 0 3.17539 0 4.125V13.9219C0 14.8715 0.769141 15.6406 1.71875 15.6406H16.8438C17.7934 15.6406 18.5625 14.8715 18.5625 13.9219V4.125C18.5625 3.17539 17.7934 2.40625 16.8438 2.40625ZM17.0156 13.9219C17.0156 14.0164 16.9383 14.0938 16.8438 14.0938H1.71875C1.62422 14.0938 1.54688 14.0164 1.54688 13.9219V4.125C1.54688 4.03047 1.62422 3.95313 1.71875 3.95313H5.72988L6.09727 2.92617L6.58926 1.54688H11.9711L12.4631 2.92617L12.8305 3.95313H16.8438C16.9383 3.95313 17.0156 4.03047 17.0156 4.125V13.9219ZM9.28125 5.32813C7.38203 5.32813 5.84375 6.86641 5.84375 8.76562C5.84375 10.6648 7.38203 12.2031 9.28125 12.2031C11.1805 12.2031 12.7188 10.6648 12.7188 8.76562C12.7188 6.86641 11.1805 5.32813 9.28125 5.32813ZM9.28125 10.8281C8.14258 10.8281 7.21875 9.9043 7.21875 8.76562C7.21875 7.62695 8.14258 6.70312 9.28125 6.70312C10.4199 6.70312 11.3438 7.62695 11.3438 8.76562C11.3438 9.9043 10.4199 10.8281 9.28125 10.8281Z" fill="#B3B3B3"/>
</svg>
