<svg width="174" height="36" viewBox="0 0 174 36" fill="none" xmlns="http://www.w3.org/2000/svg">
<g clip-path="url(#clip0_376_4442)">
<path fill-rule="evenodd" clip-rule="evenodd" d="M58.6832 8.65625H101.248V34.681H58.6832V8.65625ZM78.7196 11.9611H96.6408L82.8792 29.8575H97.6757V31.7146H62.2532L75.9693 13.8081H62.2558V11.9788H78.7196V11.9611ZM92.4357 13.7879H78.7727L66.4204 29.8575H80.1365L92.4357 13.7879ZM153.962 20.044C153.915 20.3856 153.892 20.73 153.894 21.0748C153.897 22.9054 154.444 24.6938 155.466 26.2137C156.487 27.7337 157.937 28.9169 159.632 29.6137C161.327 30.3105 163.191 30.4895 164.988 30.1281C166.785 29.7668 168.435 28.8812 169.727 27.5835C170.036 27.2753 170.33 26.9544 170.61 26.6158L172.574 27.3081C172.15 27.9138 171.662 28.4714 171.116 28.9707C170.08 30.034 168.842 30.8812 167.475 31.463C166.108 32.0448 164.639 32.3497 163.153 32.36C161.668 32.3703 160.194 32.0858 158.819 31.523C157.445 30.9602 156.195 30.1302 155.144 29.0814C154.093 28.0325 153.261 26.7856 152.696 25.413C152.131 24.0405 151.845 22.5696 151.854 21.0857C151.864 19.6018 152.168 18.1345 152.749 16.769C153.331 15.4035 154.178 14.1669 155.242 13.131C157.347 11.0292 160.202 9.8485 163.179 9.8485C166.156 9.8485 169.011 11.0292 171.116 13.131C172.041 14.0274 172.773 15.1028 173.267 16.2915C173.762 17.4802 174.008 18.757 173.991 20.044H153.962ZM154.314 18.1717H171.931C171.506 16.7969 170.749 15.5475 169.727 14.5333C168.866 13.6715 167.843 12.9879 166.717 12.5214C165.591 12.0549 164.383 11.8148 163.164 11.8148C161.945 11.8148 160.738 12.0549 159.611 12.5214C158.485 12.9879 157.462 13.6715 156.601 14.5333C155.57 15.5558 154.788 16.8004 154.314 18.1717ZM134.578 16.1504V31.7146H132.731V11.663H134.578V12.9592C136.24 11.2966 138.18 10.4653 140.398 10.4653C142.769 10.4653 144.701 11.2065 146.192 12.6888C147.683 14.1711 148.442 16.0383 148.469 18.2904V31.7146H146.645V18.4749C146.658 17.6595 146.5 16.8504 146.181 16.0997C145.862 15.349 145.389 14.6734 144.793 14.1164C143.628 12.9633 142.056 12.3142 140.417 12.3095C138.777 12.3047 137.201 12.9448 136.031 14.0911C135.422 14.678 134.926 15.3718 134.568 16.1377L134.578 16.1504ZM117.568 11.802C115.417 11.792 113.33 12.5273 111.662 13.8825C109.994 15.2377 108.848 17.1288 108.42 19.2333C107.992 21.3378 108.308 23.5255 109.315 25.4231C110.322 27.3208 111.956 28.8109 113.94 29.6394C115.924 30.4679 118.135 30.5835 120.195 29.9664C122.254 29.3494 124.036 28.0379 125.236 26.2556C126.435 24.4733 126.979 22.3306 126.773 20.193C126.568 18.0553 125.626 16.055 124.108 14.5333C123.263 13.6562 122.246 12.9614 121.121 12.4916C119.996 12.0219 118.787 11.7872 117.568 11.802ZM117.568 9.8539C119.786 9.85583 121.954 10.5139 123.798 11.7451C125.642 12.9763 127.079 14.7255 127.929 16.7717C128.778 18.818 129.002 21.0697 128.571 23.2426C128.14 25.4155 127.074 27.4123 125.508 28.9808C124.203 30.2829 122.597 31.2438 120.832 31.7783C119.067 32.3128 117.197 32.4045 115.388 32.0452C113.579 31.6859 111.887 30.8867 110.461 29.7184C109.035 28.5501 107.919 27.0488 107.213 25.3472C106.506 23.6457 106.231 21.7965 106.411 19.9634C106.591 18.1303 107.221 16.3698 108.245 14.8378C109.269 13.3057 110.655 12.0495 112.282 11.1801C113.908 10.3108 115.723 9.8553 117.568 9.8539ZM41.4097 11.802C39.2567 11.7883 37.1656 12.5212 35.4935 13.8756C33.8213 15.23 32.6716 17.1219 32.2406 19.2284C31.8095 21.3349 32.1239 23.5255 33.13 25.4264C34.1361 27.3273 35.7716 28.8206 37.7574 29.6514C39.7432 30.4823 41.9562 30.5993 44.0187 29.9824C46.0812 29.3654 47.8654 28.0529 49.0668 26.2687C50.2682 24.4845 50.8124 22.3393 50.6065 20.1991C50.4005 18.0589 49.4572 16.0564 47.9375 14.5333C47.0907 13.6548 46.0725 12.9592 44.9458 12.4894C43.819 12.0196 42.6078 11.7856 41.3869 11.802H41.4097ZM41.4097 9.8539C43.6273 9.85702 45.7944 10.5158 47.6376 11.7472C49.4808 12.9786 50.9176 14.7275 51.7668 16.7733C52.616 18.819 52.8396 21.0701 52.4094 23.2426C51.9792 25.4151 50.9144 27.4118 49.3493 28.9808C48.0448 30.2829 46.4389 31.2438 44.6738 31.7783C42.9087 32.3128 41.0388 32.4045 39.2298 32.0452C37.4208 31.6859 35.7283 30.8867 34.3024 29.7184C32.8764 28.5501 31.7609 27.0488 31.0546 25.3472C30.3482 23.6457 30.0729 21.7965 30.253 19.9634C30.4331 18.1303 31.063 16.3698 32.0869 14.8378C33.1108 13.3057 34.4973 12.0495 36.1234 11.1801C37.7495 10.3108 39.5652 9.8553 41.4097 9.8539ZM25.9756 4.77276V31.697H24.1235V4.77276H25.9756ZM18.4332 26.8735L20.3713 27.5835C20.0098 28.0776 19.6087 28.5415 19.172 28.9707C18.1322 30.0148 16.8961 30.8433 15.5346 31.4087C14.1731 31.9741 12.7131 32.2651 11.2386 32.2651C9.76409 32.2651 8.30411 31.9741 6.94262 31.4087C5.58113 30.8433 4.34498 30.0148 3.30524 28.9707C1.73663 27.4049 0.66794 25.41 0.234206 23.238C-0.199528 21.0659 0.0211549 18.8143 0.868371 16.7674C1.71559 14.7206 3.15132 12.9705 4.99417 11.7381C6.83702 10.5058 9.00429 9.8466 11.2222 9.84379C12.702 9.81775 14.1713 10.0959 15.5389 10.661C16.9065 11.226 18.1432 12.0659 19.172 13.1285C19.6088 13.5548 20.0099 14.0162 20.3713 14.508L18.4332 15.2256C18.2383 14.9729 18.0207 14.7379 17.7854 14.4853C16.9317 13.6152 15.9095 12.9279 14.7811 12.4653C13.6527 12.0026 12.4418 11.7744 11.2222 11.7944C9.6966 11.793 8.19429 12.1678 6.84856 12.8853C5.50282 13.6029 4.35527 14.6411 3.50775 15.9078C2.66022 17.1746 2.13892 18.6306 1.99012 20.1468C1.84131 21.663 2.0696 23.1924 2.65472 24.5993C3.23984 26.0063 4.1637 27.2472 5.34431 28.2121C6.52493 29.1769 7.92579 29.8358 9.42258 30.1302C10.9194 30.4247 12.4658 30.3456 13.9247 29.9C15.3835 29.4545 16.7097 28.6562 17.7854 27.576C18.0114 27.3528 18.2259 27.1184 18.4281 26.8735H18.4332ZM70.957 7.31965H88.9769C88.4834 6.29912 87.8281 5.36487 87.0363 4.55294C86.1353 3.5833 85.0411 2.81263 83.8241 2.29045C82.607 1.76828 81.294 1.50616 79.9695 1.52094C77.2217 1.52094 74.8636 2.55435 72.9027 4.55294C72.1044 5.36164 71.4453 6.29646 70.952 7.31965H70.957ZM57.1853 7.31965H69.4212C69.9875 5.79524 70.8844 4.41473 72.0475 3.27697C74.152 1.17845 77.0044 -0.000244141 79.9784 -0.000244141C82.9524 -0.000244141 85.8048 1.17845 87.9092 3.27697C89.0694 4.41516 89.9628 5.79576 90.5254 7.31965H102.756V36.01H57.1726V7.31965H57.1853Z" fill="black"/>
</g>
<defs>
<clipPath id="clip0_376_4442">
<rect width="174" height="36" fill="white"/>
</clipPath>
</defs>
</svg>
